<svg width="48" height="48" viewBox="0 0 48 48" fill="none" xmlns="http://www.w3.org/2000/svg">
<rect x="1" y="1" width="46" height="46" rx="23" stroke="black" stroke-width="2"/>
<path fill-rule="evenodd" clip-rule="evenodd" d="M22.3333 30.6665H24V25.4998C24 25.039 24.3725 24.6665 24.8333 24.6665H26.7L27.0708 23.3332H24.8333C24.3725 23.3332 24 22.9607 24 22.4998V20.2498C24 19.3765 24.7475 18.6665 25.6667 18.6665H27.3333V17.3332H25.6667C23.8283 17.3332 22.3333 18.6415 22.3333 20.2498V22.4998C22.3333 22.9607 21.9608 23.3332 21.5 23.3332H19.8333V24.6665H21.5C21.9608 24.6665 22.3333 25.039 22.3333 25.4998V30.6665ZM24.8333 32.3332H21.5C21.0392 32.3332 20.6667 31.9607 20.6667 31.4998V26.3332H19C18.5392 26.3332 18.1667 25.9607 18.1667 25.4998V22.4998C18.1667 22.039 18.5392 21.6665 19 21.6665H20.6667V20.2498C20.6667 17.7232 22.9092 15.6665 25.6667 15.6665H28.1667C28.6275 15.6665 29 16.039 29 16.4998V19.4998C29 19.9598 28.6275 20.3332 28.1667 20.3332H25.6667V21.6665H28.1667C28.4267 21.6665 28.6725 21.789 28.83 21.9957C28.9875 22.2032 29.0392 22.4723 28.97 22.7232L28.1367 25.7223C28.0367 26.0832 27.7075 26.3332 27.3333 26.3332H25.6667V31.4998C25.6667 31.9607 25.2942 32.3332 24.8333 32.3332Z" fill="black"/>
<mask id="mask0_1266_98" style="mask-type:alpha" maskUnits="userSpaceOnUse" x="18" y="15" width="11" height="18">
<path fill-rule="evenodd" clip-rule="evenodd" d="M22.3333 30.6665H24V25.4998C24 25.039 24.3725 24.6665 24.8333 24.6665H26.7L27.0708 23.3332H24.8333C24.3725 23.3332 24 22.9607 24 22.4998V20.2498C24 19.3765 24.7475 18.6665 25.6667 18.6665H27.3333V17.3332H25.6667C23.8283 17.3332 22.3333 18.6415 22.3333 20.2498V22.4998C22.3333 22.9607 21.9608 23.3332 21.5 23.3332H19.8333V24.6665H21.5C21.9608 24.6665 22.3333 25.039 22.3333 25.4998V30.6665ZM24.8333 32.3332H21.5C21.0392 32.3332 20.6667 31.9607 20.6667 31.4998V26.3332H19C18.5392 26.3332 18.1667 25.9607 18.1667 25.4998V22.4998C18.1667 22.039 18.5392 21.6665 19 21.6665H20.6667V20.2498C20.6667 17.7232 22.9092 15.6665 25.6667 15.6665H28.1667C28.6275 15.6665 29 16.039 29 16.4998V19.4998C29 19.9598 28.6275 20.3332 28.1667 20.3332H25.6667V21.6665H28.1667C28.4267 21.6665 28.6725 21.789 28.83 21.9957C28.9875 22.2032 29.0392 22.4723 28.97 22.7232L28.1367 25.7223C28.0367 26.0832 27.7075 26.3332 27.3333 26.3332H25.6667V31.4998C25.6667 31.9607 25.2942 32.3332 24.8333 32.3332Z" fill="white"/>
</mask>
<g mask="url(#mask0_1266_98)">
<rect x="14" y="14" width="20" height="20" fill="black"/>
</g>
</svg>
