<svg width="121" height="120" viewBox="0 0 121 120" fill="none" xmlns="http://www.w3.org/2000/svg">
<path fill-rule="evenodd" clip-rule="evenodd" d="M75.75 48H42.75V70H75.75V48ZM40.75 46V72H77.75V46H40.75Z" fill="black"/>
<path fill-rule="evenodd" clip-rule="evenodd" d="M52.6906 56.3567L42.1674 48.8127L43.3326 47.1873L58.2983 57.9159C59.0031 58.4212 59.9533 58.4146 60.6511 57.8997L75.1562 47.1954L76.3438 48.8046L66.1381 56.3361L71.189 61.2858L69.7892 62.7142L64.5081 57.5389L61.8387 59.5089C60.4431 60.5388 58.5427 60.5519 57.133 59.5413L54.3373 57.5371L49.1982 62.7051L47.78 61.2949L52.6906 56.3567Z" fill="black"/>
<rect x="1.5" y="1" width="118" height="118" rx="59" stroke="black" stroke-width="2"/>
</svg>
