<svg width="48" height="48" viewBox="0 0 48 48" fill="none" xmlns="http://www.w3.org/2000/svg">
<rect x="1" y="1" width="46" height="46" rx="23" stroke="black" stroke-width="2"/>
<path fill-rule="evenodd" clip-rule="evenodd" d="M31.3259 27.6375C31.2854 28.515 31.1398 28.9914 31.0163 29.3077C30.8534 29.7291 30.6576 30.028 30.3433 30.3433C30.0279 30.6587 29.728 30.8535 29.3076 31.0164C28.9913 31.1399 28.5139 31.2864 27.6364 31.326C26.6875 31.3694 26.403 31.379 24 31.379C21.5969 31.379 21.3114 31.3694 20.3625 31.326C19.486 31.2864 19.0096 31.1399 18.6914 31.0164C18.2719 30.8535 17.972 30.6587 17.6567 30.3433C17.3423 30.028 17.1465 29.7291 16.9836 29.3077C16.8601 28.9914 16.7136 28.515 16.674 27.6375C16.6306 26.6886 16.621 26.4041 16.621 24.001C16.621 21.5969 16.6306 21.3125 16.674 20.3636C16.7136 19.4861 16.8601 19.0097 16.9836 18.6924C17.1465 18.272 17.3423 17.973 17.6567 17.6567C17.972 17.3424 18.2719 17.1476 18.6914 16.9836C19.0096 16.8602 19.486 16.7146 20.3625 16.6741C21.3124 16.6307 21.5969 16.622 24 16.622C26.403 16.622 26.6875 16.6307 27.6364 16.6741C28.5139 16.7146 28.9913 16.8602 29.3076 16.9836C29.728 17.1476 30.0279 17.3424 30.3423 17.6567C30.6576 17.973 30.8534 18.272 31.0163 18.6924C31.1398 19.0097 31.2854 19.4861 31.3259 20.3636C31.3693 21.3125 31.3789 21.5969 31.3789 24.001C31.3789 26.4041 31.3693 26.6886 31.3259 27.6375ZM32.946 20.2893C32.9026 19.3317 32.7502 18.677 32.5275 18.1041C32.298 17.513 31.9904 17.0106 31.4899 16.5111C30.9894 16.0096 30.487 15.702 29.8959 15.4725C29.323 15.2498 28.6692 15.0974 27.7107 15.054C26.7502 15.0096 26.4446 15 24 15C21.5554 15 21.2488 15.0096 20.2893 15.054C19.3317 15.0974 18.677 15.2498 18.1051 15.4725C17.5121 15.702 17.0106 16.0096 16.5101 16.5111C16.0096 17.0106 15.702 17.513 15.4725 18.1041C15.2498 18.677 15.0974 19.3317 15.053 20.2893C15.0106 21.2498 15 21.5554 15 24.001C15 26.4446 15.0106 26.7512 15.053 27.7107C15.0974 28.6692 15.2498 29.323 15.4725 29.8959C15.702 30.4879 16.0096 30.9904 16.5101 31.4899C17.0106 31.9904 17.5121 32.298 18.1051 32.5275C18.677 32.7512 19.3317 32.9026 20.2893 32.947C21.2488 32.9904 21.5554 33.001 24 33.001C26.4446 33.001 26.7502 32.9904 27.7107 32.947C28.6692 32.9026 29.323 32.7512 29.8959 32.5275C30.487 32.298 30.9894 31.9904 31.4899 31.4899C31.9904 30.9904 32.298 30.4879 32.5275 29.8959C32.7502 29.323 32.9026 28.6692 32.946 27.7107C32.9904 26.7512 33 26.4446 33 24.001C33 21.5554 32.9904 21.2498 32.946 20.2893Z" fill="black"/>
<path fill-rule="evenodd" clip-rule="evenodd" d="M23.9999 27.0008C22.3432 27.0008 20.9999 25.6565 20.9999 24.0008C20.9999 22.3431 22.3432 20.9998 23.9999 20.9998C25.6566 20.9998 26.9999 22.3431 26.9999 24.0008C26.9999 25.6565 25.6566 27.0008 23.9999 27.0008ZM23.9999 19.3789C21.4473 19.3789 19.3788 21.4474 19.3788 24.0009C19.3788 26.5525 21.4473 28.6229 23.9999 28.6229C26.5524 28.6229 28.6219 26.5525 28.6219 24.0009C28.6219 21.4474 26.5524 19.3789 23.9999 19.3789Z" fill="black"/>
<path fill-rule="evenodd" clip-rule="evenodd" d="M30.0173 19.2949C30.0173 19.8908 29.5342 20.3749 28.9372 20.3749C28.3413 20.3749 27.8572 19.8908 27.8572 19.2949C27.8572 18.6989 28.3413 18.2148 28.9372 18.2148C29.5342 18.2148 30.0173 18.6989 30.0173 19.2949Z" fill="black"/>
</svg>
